<svg id="Layer_1" data-name="Layer 1" xmlns="http://www.w3.org/2000/svg" viewBox="0 0 137.58 43.89"><defs><style>.cls-1{fill:#00ffc1;}.cls-2{fill:#f000e0;}.cls-3{fill:#f4f4f4;}</style></defs><path class="cls-1" d="M934.24,540a20.61,20.61,0,0,0-20.59-20.59v-1.35a21.93,21.93,0,0,0-21.71,25.1l1.34-.19A20.6,20.6,0,0,0,894.7,548l-1.25.53a21.75,21.75,0,0,0,2.83,4.84l1.09-.84a19.86,19.86,0,0,0,3.72,3.72l-.84,1.08a22,22,0,0,0,4.84,2.84l.53-1.25a20.59,20.59,0,0,0,5.07,1.41l-.19,1.35A22,22,0,0,0,935.6,540Zm-39.16,0a18.58,18.58,0,1,1,18.57,18.57A18.59,18.59,0,0,1,895.08,540Z" transform="translate(-891.71 -518.06)"/><polygon class="cls-2" points="21.94 12.13 12.97 30.07 16.29 30.07 17.82 27.07 19.3 24.11 21.94 18.83 24.57 24.11 27.57 30.07 30.92 30.07 27.93 24.11 21.94 12.13"/><polygon class="cls-3" points="57.51 12.69 48.76 30.2 52 30.2 53.49 27.27 54.93 24.38 57.51 19.23 60.08 24.38 63.01 30.2 66.27 30.2 63.36 24.38 57.51 12.69"/><path class="cls-3" d="M967.22,539.87a5.52,5.52,0,0,0,1-3.3,5.84,5.84,0,0,0-5.82-5.83h-7.69l1.51,2.61.33.33h5.85a2.77,2.77,0,0,1,2,.85,2.73,2.73,0,0,1,.88,2,3,3,0,0,1-2.91,2.93l-2.61,0,5.08,8.78h3.35L964.66,542A5.57,5.57,0,0,0,967.22,539.87Z" transform="translate(-891.71 -518.06)"/><polygon class="cls-3" points="81.25 29.96 81.25 30.2 96.48 30.2 96.48 27.27 81.25 27.27 81.25 29.96"/><rect class="cls-3" x="81.25" y="12.69" width="15.23" height="2.93"/><polygon class="cls-3" points="81.25 20 81.25 22.91 85.05 22.91 96.48 22.91 96.48 20 85.05 20 81.25 20"/><polygon class="cls-3" points="113.41 23.12 101.76 12.63 101.71 30.14 104.62 30.14 104.62 19.62 116.32 30.14 116.32 30.12 116.32 30.1 116.32 12.63 113.41 12.63 113.41 23.12"/><polygon class="cls-3" points="134.67 24.32 128.82 12.63 120.07 30.14 123.31 30.14 124.8 27.21 126.24 24.32 128.82 19.18 131.38 24.32 134.32 30.14 137.58 30.14 134.67 24.32"/></svg>